Patient4_TMGait_0pt6_01_left_31_EMG.mot
version=1
nRows=37
nColumns=33
inDegrees=no
endheader
time	1LAddLong	2LGlutMax	3LGlutMed	4LIliopsoas	5LSemiMemb	6LBicFemLong	7LRecFem	8LVastMed	9LVastLat	10LGasMed	11LTibAnt	12lTibPost	13LPeroneusLong	14LSol	15LExtDigLong	16LFlexDigLong	17RAddLong	18RGlutMax	19RGlutMed	20RIliopsoas	21RSemiMemb	22RBicFemLong	23RRecFem	24RVastMed	25RVastLat	26RGasMed	27RTibAnt	28RTibPost	29RPeroneusLong	30RSol	31RExtDigLong	32RFlexDigLong
37.65	0.006866	0.64224	-0.047302	0.042725	0.005188	0.007629	0.080261	0.026703	-0.746	0.00473	0.033875	0.003815	-0.004425	0.034943	-0.32364	-0.01236	0.024872	0.012207	0.001068	-0.036469	0.082092	-0.1178	-0.033875	0.12665	0.1532	0.10742	-0.26855	-0.035858	1.5204	0.11078	0.003052	-0.000763
37.651	0.019073	0.55588	-0.029755	0.063782	0.001984	0.005035	0.023193	0.036316	-0.72433	-0.009766	-0.032196	0.005341	0.009308	0.043945	-0.2504	-0.024261	0.034943	0.14343	0.09552	0.016937	-0.007019	-0.19073	0.058594	0.1535	0.050964	0.010529	-0.35843	-0.047913	1.9771	-0.023193	-0.001221	-0.000305
37.652	0.007935	0.45929	-0.040588	0.054932	0.007324	0.011139	0.012054	0.025177	-0.65521	-0.003967	-0.10864	0.000763	0.029755	0.031891	0.055695	-0.003052	0.033264	-0.002136	0.35141	0.11353	-0.10162	-0.073242	0.074463	0.067444	0.019989	-0.054474	0.053253	0.13443	-1.0619	-0.030823	-0.002441	-0.011139
37.653	0.010529	0.39902	-0.03067	0.019684	0.005188	-0.000305	-0.011902	0.028687	-0.57449	0.00824	-0.086975	0.005951	0.088806	-0.010071	0.13641	-0.004425	0.026703	-0.007172	-0.32532	0.18433	-0.16373	0.026245	0.014496	-0.079956	0.032196	0.058289	-0.017242	0.067291	-0.34241	-0.20599	-0.001221	-0.008392
37.654	0.010376	0.30594	-0.04776	-0.014648	0.006256	-0.00946	0.049286	0.02182	-0.45822	0.030518	-0.031281	0.002899	0.065918	-0.11139	0.077667	-0.018463	0.030518	-0.12299	-0.61813	0.085297	-0.32654	0.088043	-0.072784	-0.15366	0.007935	0.12665	-0.085297	-0.054321	0.27847	-0.088959	0.001526	0
37.655	0.000763	0.20004	-0.037079	-0.016174	0.008545	-0.013123	0.12833	0.017395	-0.3569	0.054932	0.18005	0.007782	0.005798	-0.086365	0.1857	-0.013733	0.013123	-0.23254	-0.4277	0.04425	-0.19836	0.088654	-0.21362	-0.027161	0.063324	0.030212	-0.10696	-0.054169	0.56503	0.002136	0.001068	-0.004883
37.656	0.003815	0.19989	-0.043945	0.011444	0.009003	-0.024567	0.15686	0.014343	-0.26688	0.053711	0.33432	0.009613	-0.014496	0.029755	0.13504	-0.031738	-0.013275	-0.24506	-0.51758	0.047607	0.029755	0.013123	-0.31708	0.10956	0.12528	0.01297	0.010376	-0.034943	1.0004	0.21027	-0.000458	-0.002747
37.657	0.007172	0.16769	-0.012207	0.028992	-0.002747	-0.002594	0.21896	0.012207	-0.1535	0.011292	-0.08194	0.005188	0.041656	0.05249	-0.039368	-0.022125	-0.019379	-0.25177	-0.41061	-0.042572	0.03479	0.042419	-0.24979	0.11948	0.096741	0.023193	0.18738	-0.013123	0.21988	0.16525	0.000916	-0.010986
37.658	0.005341	0.16785	-0.035706	0.023346	0.002594	-0.018768	0.29968	0.010376	-0.062866	-0.015259	-0.1503	0.008545	0.079346	0.036621	-0.13702	-0.01358	-0.028381	-0.28168	0.087585	-0.083008	0.045166	0.15243	-0.11856	0.068054	0.001678	0.072784	0.29862	-0.016174	-0.71091	0.12466	-0.007935	-0.000916
37.659	0.010681	0.12802	-0.040131	0.011139	0.00412	0.000916	0.345	0.000305	-0.006561	-0.0354	-0.082397	0.002136	0.11353	-0.032654	-0.28061	-0.014343	0.000916	-0.32257	0.57404	-0.068207	-0.011139	0.26093	0.081024	-0.041504	-0.005341	0.08194	0.21378	-0.013885	-0.082397	0.050659	-0.00061	-0.007019
37.66	0.013733	0.11795	-0.0383	0.007477	-0.00824	0.001526	0.29892	0.004578	0.020142	-0.027008	-0.00473	0.00061	0.13443	-0.059509	-0.20355	-0.038605	0.015717	-0.33539	0.53619	-0.057678	-0.007935	0.24414	0.1918	-0.010376	0.013733	0.029297	0.098724	-0.008698	-0.098267	-0.030823	-0.000763	-0.011597
37.661	0.008545	0.11673	-0.031128	0.028992	0.00412	0.009003	0.2272	0.013275	0.070343	-0.017395	-0.070648	0.001678	0.1239	-0.022736	0.28946	-0.023651	0.033569	-0.40878	0.19974	-0.013275	-0.019226	0.24017	0.30838	-0.13138	-0.032654	0.012054	0.28336	0.006104	-0.97595	-0.16327	-0.001678	-0.010376
37.662	0.007935	0.10483	-0.044403	0.01297	0.004578	-0.005493	0.12573	0.017395	0.10819	-0.005646	-0.053558	0.008087	0.090637	-0.062103	0.26886	-0.02243	0.003967	-0.40176	-0.088043	-0.10788	0.058136	0.17838	0.18982	-0.2214	-0.05661	0.006409	0.21957	0.007172	-0.93903	-0.1178	-0.004272	-0.015259
37.663	0.006409	0.15305	-0.031891	-0.007019	0.00061	0.014038	0.006714	0.026245	0.15167	0.00824	-0.009918	-0.00061	0.072021	-0.10895	-0.23132	-0.023346	-0.019836	-0.42343	-0.088043	-0.11566	0.006866	0.056763	0.14481	-0.23422	0.022583	0.023499	0.19836	-0.001068	0.092468	-0.11108	-0.000458	-0.012817
37.664	0.008545	0.15564	-0.029755	-0.015106	-0.004578	0.014343	-0.083313	0.02182	0.17731	-0.020447	0.032806	0.004425	0.041504	-0.13245	-0.17853	-0.0177	-0.045166	-0.43594	-0.022888	-0.0354	0.061035	0.046997	0.10361	-0.121	0.057373	0.027618	-0.040741	-0.007019	-0.45105	-0.003967	-0.000916	-0.011902
37.665	0.011444	0.15091	-0.04837	0.006256	-0.005035	0.010986	-0.11032	0.018005	0.21118	-0.033112	-0.019226	-0.000916	0.059052	-0.069275	-0.003815	-0.014038	-0.020142	-0.47867	0.092926	0.042725	0.093994	-0.17761	-0.045166	-0.17044	0.15625	-0.00885	-0.22614	-0.014954	-0.23468	0.000458	-0.00351	-0.006256
37.666	0.007629	0.13367	-0.018005	0.027161	0	-0.007782	-0.15427	0.023651	0.23834	-0.006866	0.023193	0.003204	0.008698	0.020142	0.086975	-0.024567	-0.016174	-0.45654	0.057526	0.17258	0.057831	-0.42267	-0.35706	-0.033112	0.1445	-0.007782	-0.052185	-0.020142	1.736	0.25253	-0.001068	0.001984
37.667	0.011139	0.15823	-0.03891	0.027771	0.000763	0.006866	-0.084839	0.011749	0.27298	0.0383	0.044708	-0.000916	-0.070801	-0.008087	0.09613	-0.012207	-0.009918	-0.3627	0.05188	0.22705	0.050964	-0.33295	-0.18509	0.049896	-0.043182	-0.0383	0.30365	-0.014343	1.1214	0.24246	-0.000305	-0.002289
37.668	0.004578	0.14771	-0.056152	0.033722	-0.000153	-0.005035	0.11383	0.002289	0.30762	0.04303	-0.029297	0.004425	-0.14679	-0.016785	0.089417	0.001831	0.026093	-0.42435	-0.031281	0.14053	0.022125	-0.39719	0.047607	0.013733	-0.10666	-0.075684	0.51178	-0.001678	-1.0107	-0.073547	-0.000763	-0.008392
37.669	0.009155	0.10269	-0.054169	0.039063	0.000458	0.001984	0.21423	-0.005035	0.34622	0.031738	-0.079041	0.003052	-0.15091	-0.022583	0.081177	-0.01709	0.025787	-0.40253	0.081635	0.055237	-0.18662	-0.2124	0.007782	0.11322	-0.019989	-0.061951	0.53055	0.012665	-0.44617	-0.19455	-0.002747	-0.00824
37.67	0.01236	0.07782	-0.057678	0.02594	-0.003357	0.002289	0.20615	-0.007324	0.34714	-0.004883	-0.072632	0.005951	-0.098114	-0.010681	-0.097961	-0.013733	-0.007935	-0.35019	0.50339	-0.007477	-0.20584	-0.10132	-0.30258	0.04425	0.11444	-0.007629	-0.22034	0.043488	-0.44846	-0.12589	0.002899	-0.004578
37.671	0.00824	0.06958	-0.06134	-0.023499	-0.007019	-0.007172	0.18662	0.000458	0.34378	-0.025482	0.0383	0.007782	-0.032501	0.01709	-0.048676	-0.010071	0.019073	-0.2948	0.83054	-0.11505	-0.041351	-0.18051	-0.10757	0.008545	0.043182	-0.003357	-0.42725	0.019836	1.4621	-0.17868	0	-0.003815
37.672	0.007324	0.058594	-0.07431	-0.006561	-0.002594	-0.000458	0.10529	0.000305	0.33905	-0.023346	0.036011	-0.001221	0.028381	0.00473	-0.054016	-0.001984	0.04364	-0.28763	0.85556	-0.16144	-0.13672	-0.26367	-0.16937	-0.07309	0.001984	-0.01236	-0.028534	0.010529	1.0243	-0.33005	-0.001984	0.000458
37.673	-0.002441	0.056458	-0.037079	0.007629	-0.002136	0.007782	0.050812	0.004883	0.336	-0.007782	0.040588	0.007629	0.094147	-0.020447	0.019684	0.014038	0.038605	-0.22858	0.80017	-0.060272	-0.20279	-0.11887	-0.13809	-0.17273	-0.090332	0.0177	0.40924	-0.037384	-0.93399	-0.18387	0.001068	0
37.674	0.010681	0.020752	-0.027008	0.027618	-0.003815	-0.003204	0.026245	0.003052	0.33264	-0.023041	0.063171	0.002747	0.18646	0.04715	0.11139	0.011749	0.028076	-0.18845	0.40466	0.011749	-0.065765	-0.13275	-0.08606	-0.081329	-0.053253	0.012512	-0.037842	-0.019073	0.024567	-0.024261	-0.001831	0.000153
37.675	0.005493	0.009613	-0.043945	0.002899	-0.001221	-0.019073	0.02594	-0.001984	0.33676	-0.03418	0.037079	0.005798	0.15091	0.092163	-0.08316	-0.010071	0.005798	-0.23331	0.15839	0.11688	0.13779	-0.14481	-0.029755	-0.029602	-0.028687	0.000458	-0.92529	-0.006409	0.014954	0.096588	-0.001373	0.007477
37.676	0.007629	0.025787	-0.060883	0.032196	0	-0.015106	0.029449	-0.009308	0.31067	-0.007324	0.15839	0.000916	0.056305	0.033417	-0.098724	0.00824	0.018158	-0.2066	-0.085297	0.09079	0.10422	-0.04303	-0.056	0.039063	-0.059357	0.016479	-1.5948	-0.00473	-2.9091	-0.13016	-0.003662	0.009155
37.677	0.007935	0.005646	-0.044556	0.031281	-0.003662	-0.01358	0.041046	-0.002594	0.30426	0.003357	0.2536	0.004883	0.039825	-0.010223	-0.037537	-0.000916	0.024109	-0.16953	-0.076447	0.046844	0.038605	-0.062866	-0.018616	0.049286	-0.057526	0.004578	-0.93353	-0.024719	-4.5662	-0.1091	-0.00473	0.000458
37.678	0.01297	-0.014496	-0.041809	0.033875	-0.007324	-0.010529	0.053864	0.005646	0.29785	-0.030518	0.18906	0.002289	0.074158	-0.099792	0.003204	0.008087	0.007477	-0.09903	0.055389	0.10437	0.067444	-0.093384	-0.047455	0.042419	0.019684	0.00824	-0.58579	0.06897	2.5636	-0.17624	0.014191	-0.005646
37.679	0.007324	-0.029144	-0.049286	0.015717	-0.007935	-0.009918	0.11856	0.00824	0.30533	-0.043182	-0.12695	0.005341	0.040741	-0.1062	0.040436	0.009613	0.006409	-0.14404	0.003204	0.070953	-0.00412	-0.089417	-0.020447	0.023499	-0.028687	0.011292	0.046692	0.011749	4.7098	-0.23178	0.00473	0.007935
37.68	-0.001373	-0.071411	-0.04364	0.012054	-0.009003	-0.025024	0.13641	0.006104	0.29083	-0.049438	0.003052	0.003052	0.020294	0.062103	0.11292	0.016174	0.007019	-0.26123	0.2002	0.010986	-0.13229	0.03418	0.067444	-0.08316	-0.088654	-0.000916	0.26825	-0.015869	1.4001	-0.095215	0	-0.010529
37.681	0.006409	-0.087585	-0.060883	0.0177	-0.005035	-0.024109	0.13992	0.007477	0.28091	-0.040131	-0.080566	0.001373	0.034485	0.14099	0.14969	0.012665	0.019379	-0.22903	0.19257	0.036316	-0.16449	0.097504	0.11627	-0.12177	-0.13184	-0.001831	0.1474	-0.014191	-1.4153	-0.040436	-0.007324	-0.008087
37.682	0.004883	-0.10071	-0.054169	-0.003815	-0.009155	-0.023956	0.056458	0.007935	0.27512	-0.007324	0.06958	0.001831	0.016632	-0.000916	0.48355	0.025635	0.022583	-0.20783	-0.16571	-0.031586	-0.079651	0.005951	0.12756	-0.078735	-0.12894	-0.012512	0.15152	-0.014038	-1.2064	0.13473	-0.001984	-0.011902
37.683	0.001678	-0.1236	-0.05188	0.004883	-0.007172	-0.042725	0.011139	0.009613	0.26733	0.001678	-0.021973	-0.000153	0.013275	-0.11276	0.103	0.014954	0.00885	-0.21118	-0.11871	-0.080109	-0.16037	0.042725	0.016022	0.021973	-0.059052	-0.011597	0.03418	-0.014801	0.67688	0.30579	-0.000153	-0.015259
37.684	0.009155	-0.11246	-0.020599	0.012512	-0.00885	-0.049896	-0.004425	0.011749	0.26093	-0.011597	-0.095062	0.004272	0.064545	0.017548	-0.024872	0.0177	-0.01236	-0.13168	0.036469	-0.082092	0.015106	-0.027161	-0.11505	0.21637	0.14587	-0.023193	0.065002	-0.01358	1.6043	0.37369	0.000763	-0.0177
37.685	0.001526	-0.094757	-0.028839	0.027924	-0.004578	-0.060272	-0.026093	0.00946	0.26962	-0.056	-0.11322	0.00473	0.12863	-0.075073	0.040283	0.017395	-0.006104	-0.16663	-0.00946	-0.059052	0.15717	-0.16998	0.11704	0.2243	0.23453	-0.019989	0.20065	-0.015259	1.4839	0.28595	0.009155	-0.006409
37.686	-0.005798	-0.10025	-0.024261	0.019684	-0.007019	-0.072174	-0.043793	0.000153	0.26642	-0.09964	-0.18249	0.005646	0.10941	-0.3305	-0.22263	0.020752	-0.000763	-0.067444	0.079498	-0.013275	0.066223	-0.26062	0.2211	-0.030365	0.097351	-0.002594	0.14191	-0.009308	0.71091	-0.060577	-0.002136	-0.009003
